<svg width="600" height="600" version="1.1"
    xmlns="http://www.w3.org/2000/svg">
    <path stroke="none" fill="black" stroke-width="1.000000" stroke-linecap="butt"
        d="M100.000000 500.000000 L 200.000000 400.000000 C 248.800000 422.400000, 280.800000 447.200000, 325.600000 487.200000 C 392.000000 477.600000, 433.600000 483.200000, 500.000000 500.000000 C 458.400000 475.200000, 434.800000 457.200000, 406.400000 419.200000 C 364.000000 416.800000, 335.600000 413.200000, 300.000000 400.000000 L 300.000000 200.000000 C 264.400000 186.800000, 236.000000 183.200000, 193.600000 180.800000 C 165.200000 142.800000, 141.600000 124.800000, 100.000000 100.000000 C 83.200000 166.400000, 77.600000 208.000000, 87.200000 274.400000 C 47.200000 319.200000, 22.400000 351.200000, 0.000000 400.000000 L 100.000000 500.000000 Z"></path>
    <path stroke="white" fill="white" stroke-width="5.000000" stroke-linecap="butt"
        d="M101.600000 180.000000 C 116.000000 191.200000, 127.200000 221.600000, 129.600000 226.000000 C 118.000000 236.000000, 104.000000 253.200000, 96.800000 263.200000 C 93.200000 226.000000, 95.200000 192.000000, 101.600000 180.000000 Z"></path>
    <path stroke="white" fill="white" stroke-width="5.000000" stroke-linecap="butt"
        d="M138.000000 152.000000 C 164.000000 164.000000, 180.000000 184.000000, 182.000000 187.200000 C 166.000000 196.000000, 156.000000 204.000000, 146.000000 214.000000 C 138.000000 190.000000, 136.000000 168.000000, 138.000000 152.000000 Z"></path>
    <path stroke="none" fill="black" stroke-width="1.000000" stroke-linecap="butt"
        d="M107.200000 212.000000 C 115.200000 216.800000, 121.200000 226.400000, 122.800000 230.400000 C 114.000000 239.200000, 104.000000 251.200000, 103.200000 252.800000 C 102.000000 226.000000, 104.000000 220.000000, 107.200000 212.000000 Z"></path>
    <path stroke="none" fill="black" stroke-width="1.000000" stroke-linecap="butt"
        d="M151.200000 176.000000 C 160.000000 178.000000, 169.600000 186.800000, 174.000000 190.400000 C 161.600000 197.600000, 155.600000 204.000000, 152.800000 205.600000 C 150.400000 196.000000, 148.800000 182.000000, 151.200000 176.000000 Z"></path>
    <path stroke="white" fill="none" stroke-width="5.000000" stroke-linecap="butt"
        d="M436.000000 472.000000 C 240.000000 452.000000, 156.000000 300.000000, 110.000000 140.000000"></path>
    <path stroke="white" fill="none" stroke-width="5.000000" stroke-linecap="butt"
        d="M94.000000 292.000000 C 116.000000 340.000000, 148.000000 380.000000, 184.000000 396.000000"></path>
    <path stroke="white" fill="none" stroke-width="5.000000" stroke-linecap="butt"
        d="M290.000000 392.000000 C 228.000000 360.000000, 236.000000 260.000000, 196.000000 192.000000"></path>
    <path stroke="white" fill="none" stroke-width="5.000000" stroke-linecap="butt"
        d="M250.800000 349.200000 C 264.000000 336.000000, 284.000000 316.000000, 298.000000 302.000000"></path>
    <path stroke="white" fill="none" stroke-width="5.000000" stroke-linecap="butt"
        d="M272.000000 434.000000 C 292.000000 430.000000, 296.000000 412.000000, 296.000000 408.000000"></path>
    <path stroke="white" fill="none" stroke-width="5.000000" stroke-linecap="butt"
        d="M280.800000 428.800000 C 304.000000 448.000000, 316.000000 456.000000, 340.000000 468.000000"></path>
    <path stroke="white" fill="none" stroke-width="5.000000" stroke-linecap="butt"
        d="M292.800000 414.000000 C 308.000000 420.000000, 340.000000 436.000000, 396.000000 440.000000"></path>
    <path stroke="white" fill="none" stroke-width="5.000000" stroke-linecap="butt"
        d="M32.000000 405.200000 C 50.000000 358.000000, 74.000000 338.000000, 104.000000 308.000000"></path>
    <path stroke="white" fill="none" stroke-width="5.000000" stroke-linecap="butt"
        d="M56.000000 430.000000 C 76.000000 400.000000, 88.000000 380.000000, 132.000000 354.000000"></path>
    <path stroke="white" fill="none" stroke-width="5.000000" stroke-linecap="butt"
        d="M82.000000 454.000000 C 104.000000 428.000000, 124.000000 408.000000, 168.000000 388.000000"></path>
    <path stroke="white" fill="none" stroke-width="5.000000" stroke-linecap="butt"
        d="M208.000000 220.000000 C 236.000000 212.000000, 270.400000 216.000000, 289.600000 223.200000"></path>
    <path stroke="white" fill="none" stroke-width="5.000000" stroke-linecap="butt"
        d="M224.000000 272.000000 C 260.000000 251.200000, 274.000000 252.800000, 289.600000 254.000000"></path>
    <path stroke="white" fill="none" stroke-width="5.000000" stroke-linecap="butt"
        d="M240.000000 326.000000 C 260.000000 298.000000, 268.800000 292.000000, 289.600000 284.800000"></path>
</svg>